<svg viewBox="0 0 20 14" fill="none" xmlns="http://www.w3.org/2000/svg">
  <path d="M19.3857 6.74368C19.3753 6.55046 19.3035 6.39739 19.2082 6.30203L13.1919 0.199255C12.9152 -0.0679909 12.5013 -0.0567013 12.2467 0.174162C11.9921 0.405025 11.9804 0.837887 12.2206 1.08254L17.1609 6.10127L0.668467 6.10127C0.298972 6.10127 -3.1022e-07 6.38859 -2.94699e-07 6.74367C-2.79178e-07 7.09875 0.298982 7.38607 0.668467 7.38607L17.1609 7.38607L12.2206 12.4048C11.9804 12.6495 12.0012 13.0735 12.2467 13.3132C12.5013 13.5603 12.9517 13.5327 13.1919 13.2881L19.2082 7.18531C19.3674 7.02973 19.3753 6.89675 19.3857 6.74368Z"/>
</svg>
