<svg viewBox="0 0 40 40" fill="none" xmlns="http://www.w3.org/2000/svg">
  <path d="M19.9072 3.59769C25.1838 3.59769 25.9034 3.59769 28.062 3.59769C29.9808 3.59769 30.9401 4.07738 31.6597 4.31723C32.6191 4.79692 33.3386 5.03677 34.0581 5.75631C34.7777 6.47584 35.2574 7.19538 35.4972 8.15477C35.7371 8.8743 35.9769 9.83369 36.2167 11.7525C36.2167 13.9111 36.2167 14.3908 36.2167 19.9072C36.2167 25.4237 36.2167 25.9034 36.2167 28.062C36.2167 29.9808 35.7371 30.9401 35.4972 31.6597C35.0175 32.6191 34.7777 33.3386 34.0581 34.0581C33.3386 34.7777 32.6191 35.2574 31.6597 35.4972C30.9401 35.7371 29.9808 35.9769 28.062 36.2167C25.9034 36.2167 25.4237 36.2167 19.9072 36.2167C14.3908 36.2167 13.9111 36.2167 11.7525 36.2167C9.83369 36.2167 8.8743 35.7371 8.15477 35.4972C7.19538 35.0175 6.47584 34.7777 5.75631 34.0581C5.03677 33.3386 4.55707 32.6191 4.31723 31.6597C4.07738 30.9401 3.83754 29.9808 3.59769 28.062C3.59769 25.9034 3.59769 25.4237 3.59769 19.9072C3.59769 14.3908 3.59769 13.9111 3.59769 11.7525C3.59769 9.83369 4.07738 8.8743 4.31723 8.15477C4.79692 7.19538 5.03677 6.47584 5.75631 5.75631C6.47584 5.03677 7.19538 4.55707 8.15477 4.31723C8.8743 4.07738 9.83369 3.83754 11.7525 3.59769C13.9111 3.59769 14.6306 3.59769 19.9072 3.59769ZM19.9072 0C14.3908 0 13.9111 0 11.7525 0C9.59384 0 8.15477 0.479693 6.95554 0.959385C5.75631 1.43908 4.55708 2.15862 3.35785 3.35785C2.15862 4.55708 1.67892 5.51646 0.959385 6.95554C0.479693 8.15477 0.239846 9.59384 0 11.7525C0 13.9111 0 14.6306 0 19.9072C0 25.4237 0 25.9034 0 28.062C0 30.2206 0.479693 31.6597 0.959385 32.8589C1.43908 34.0581 2.15862 35.2574 3.35785 36.4566C4.55708 37.6558 5.51646 38.1355 6.95554 38.8551C8.15477 39.3348 9.59384 39.5746 11.7525 39.8144C13.9111 39.8144 14.6306 39.8144 19.9072 39.8144C25.1838 39.8144 25.9034 39.8144 28.062 39.8144C30.2206 39.8144 31.6597 39.3348 32.8589 38.8551C34.0581 38.3754 35.2574 37.6558 36.4566 36.4566C37.6558 35.2574 38.1355 34.298 38.8551 32.8589C39.3348 31.6597 39.5746 30.2206 39.8144 28.062C39.8144 25.9034 39.8144 25.1838 39.8144 19.9072C39.8144 14.6306 39.8144 13.9111 39.8144 11.7525C39.8144 9.59384 39.3348 8.15477 38.8551 6.95554C38.3754 5.75631 37.6558 4.55708 36.4566 3.35785C35.2574 2.15862 34.298 1.67892 32.8589 0.959385C31.6597 0.479693 30.2206 0.239846 28.062 0C25.9034 0 25.4237 0 19.9072 0Z"/>
  <path d="M19.9072 9.59384C14.1509 9.59384 9.59384 14.1509 9.59384 19.9072C9.59384 25.6635 14.1509 30.2206 19.9072 30.2206C25.6635 30.2206 30.2206 25.6635 30.2206 19.9072C30.2206 14.1509 25.6635 9.59384 19.9072 9.59384ZM19.9072 26.6229C16.3095 26.6229 13.1915 23.7448 13.1915 19.9072C13.1915 16.3095 16.0697 13.1915 19.9072 13.1915C23.5049 13.1915 26.6229 16.0697 26.6229 19.9072C26.6229 23.5049 23.5049 26.6229 19.9072 26.6229Z"/>
  <path d="M30.4604 11.7525C31.7851 11.7525 32.8589 10.6786 32.8589 9.354C32.8589 8.02936 31.7851 6.95554 30.4604 6.95554C29.1358 6.95554 28.062 8.02936 28.062 9.354C28.062 10.6786 29.1358 11.7525 30.4604 11.7525Z"/>
</svg>
