<svg viewBox="0 0 141 89" fill="none" xmlns="http://www.w3.org/2000/svg">
<path d="M102.867 4.87316L108.913 9.92173C109.043 10.0383 109.271 10.0754 109.433 10.0543L117.265 8.51882C117.774 8.40481 118.185 8.91398 117.979 9.36997L114.893 16.6668C114.839 16.8551 114.835 17.0653 114.928 17.1962L118.745 24.0705C119.003 24.5138 118.626 25.0779 118.134 25.018L110.175 24.4719C109.999 24.4568 109.777 24.5429 109.657 24.6729L104.149 30.4448C103.79 30.8349 103.168 30.6585 103.059 30.1577L101.24 22.5082C101.169 22.3266 101.099 22.1451 100.909 22.0936L93.7091 18.7879C93.2493 18.5903 93.2089 17.9376 93.6616 17.6784L100.48 13.5286C100.665 13.4568 100.756 13.2541 100.774 13.0802L101.795 5.28951C101.862 4.80396 102.49 4.5599 102.867 4.87316Z" fill="url(#paint0_linear_231_404)"/>
<path d="M112.073 31.6367L116.422 35.7143C116.552 35.8308 116.756 35.9186 116.956 35.8831L122.938 35.0655C123.461 34.9878 123.835 35.5113 123.592 35.9817L120.965 41.3878C120.859 41.5541 120.892 41.75 120.963 41.9316L123.548 47.2784C123.732 47.7504 123.377 48.2638 122.886 48.2039L116.886 47.4407C116.71 47.4256 116.474 47.4754 116.368 47.6417L111.969 51.772C111.595 52.1258 110.973 51.9494 110.901 51.4343L109.86 45.5715C109.79 45.3899 109.72 45.2084 109.515 45.1206L104.218 42.3299C103.781 42.0817 103.792 41.4509 104.208 41.206L109.563 38.3339C109.748 38.2621 109.854 38.0958 109.895 37.8712L111.023 32.0024C111.127 31.5025 111.733 31.3091 112.124 31.6587L112.073 31.6367Z" fill="url(#paint1_linear_231_404)"/>
<path d="M105.611 56.6664L108.341 59.5339C108.486 59.6868 108.676 59.7383 108.838 59.7171L112.835 59.3775C113.336 59.3505 113.709 59.874 113.452 60.3081L111.519 63.7736C111.413 63.94 111.41 64.1503 111.48 64.3318L113.014 67.956C113.198 68.428 112.792 68.9195 112.287 68.8233L108.358 68.1335C108.168 68.082 107.983 68.1538 107.812 68.2619L104.777 70.8603C104.389 71.1778 103.79 70.9507 103.732 70.4719L103.239 66.569C103.206 66.3731 103.098 66.2059 102.931 66.1037L99.5098 64.0891C99.0729 63.8408 99.1205 63.1957 99.5874 62.9728L103.211 61.2323C103.396 61.1605 103.502 60.9941 103.557 60.8058L104.496 56.9738C104.6 56.4739 105.257 56.3024 105.611 56.6664Z" fill="url(#paint2_linear_231_404)"/>
<path d="M96.269 72.0124L96.7002 74.622C96.7226 74.7607 96.8084 74.8606 96.9058 74.9098L99.2416 76.2235C99.5281 76.3965 99.5378 76.826 99.2327 76.9692L96.8632 78.1577C96.7423 78.2098 96.6614 78.3247 96.6321 78.4514L96.1184 81.0297C96.0423 81.3593 95.6338 81.4786 95.3907 81.2355L93.4795 79.379C93.3938 79.2791 93.2646 79.2492 93.1296 79.2448L90.4767 79.54C90.1434 79.5699 89.8978 79.2194 90.0455 78.9331L91.2392 76.5919C91.2943 76.4711 91.2977 76.3384 91.2436 76.2191L90.1105 73.8212C89.9624 73.52 90.231 73.1815 90.5727 73.2337L93.2283 73.6333C93.3575 73.6631 93.4784 73.6109 93.5793 73.5274L95.5375 71.7633C95.7827 71.5262 96.2101 71.6783 96.269 72.0124Z" fill="url(#paint3_linear_231_404)"/>
<path d="M83.4901 79.7824L83.7732 81.4953C83.7879 81.5863 83.8442 81.6519 83.9081 81.6842L85.4413 82.5465C85.6293 82.66 85.6357 82.9419 85.4354 83.0359L83.8802 83.816C83.8008 83.8503 83.7477 83.9256 83.7285 84.0088L83.3913 85.7012C83.3413 85.9175 83.0732 85.9958 82.9136 85.8362L81.6592 84.6176C81.6029 84.5521 81.5182 84.5325 81.4295 84.5295L79.6883 84.7234C79.4694 84.7429 79.3082 84.5129 79.4052 84.325L80.1887 82.7883C80.2249 82.709 80.2271 82.6219 80.1916 82.5436L79.4479 80.9697C79.3507 80.772 79.527 80.5498 79.7512 80.584L81.4943 80.8463C81.5791 80.8659 81.6584 80.8317 81.7247 80.7768L83.01 79.6189C83.1709 79.4633 83.4515 79.5631 83.4901 79.7824Z" fill="url(#paint4_linear_231_404)"/>
<path d="M0.618935 45.0304V43.3132L1.56385 43.1769L5.64331 31.8016H8.70518L12.7756 43.1769L13.7114 43.3132V45.0304H9.00501V43.3132L9.89541 43.1496L9.3957 41.5142H4.93463L4.45309 43.1496L5.34349 43.3132V45.0304H0.618935ZM5.5888 39.4245H8.74153L7.32416 35.1361L7.18788 34.709H7.13336L6.98799 35.1724L5.5888 39.4245ZM21.061 45.2212C19.789 45.2212 18.6684 44.9607 17.6993 44.4398C16.7301 43.9128 15.976 43.1617 15.4369 42.1865C14.8979 41.2113 14.6283 40.0423 14.6283 38.6795V38.1616C14.6283 36.8835 14.8827 35.7539 15.3915 34.7726C15.9003 33.7853 16.6241 33.013 17.563 32.4558C18.5079 31.8925 19.6285 31.6108 20.9247 31.6108C21.8333 31.6108 22.6903 31.735 23.4959 31.9833C24.3076 32.2317 25.0435 32.6345 25.7038 33.1917V36.4898H23.5686L23.2779 34.5091C23.0719 34.3698 22.8539 34.2487 22.6237 34.1457C22.3935 34.0428 22.1452 33.964 21.8787 33.9095C21.6122 33.855 21.3245 33.8277 21.0155 33.8277C20.3008 33.8277 19.683 34.0004 19.1621 34.3456C18.6412 34.6909 18.2384 35.1845 17.9537 35.8266C17.669 36.4686 17.5266 37.2409 17.5266 38.1434V38.6795C17.5266 39.5517 17.672 40.3149 17.9628 40.9691C18.2596 41.6172 18.6775 42.1199 19.2166 42.4773C19.7557 42.8347 20.3826 43.0133 21.0973 43.0133C21.4729 43.0133 21.8484 42.974 22.2239 42.8952C22.5995 42.8104 22.9508 42.7014 23.2779 42.5681L23.5777 40.7056H25.7128V43.9401C25.1919 44.2914 24.5347 44.5942 23.7412 44.8486C22.9538 45.097 22.0604 45.2212 21.061 45.2212ZM27.4929 45.0304V43.3132L28.8921 43.0315V33.8096L27.4929 33.5279V31.8016H33.1896V33.5279L31.7995 33.8096V37.3984H36.9147V33.8096L35.5246 33.5279V31.8016H36.9147H39.8131H41.2123V33.5279L39.8131 33.8096V43.0315L41.2123 43.3132V45.0304H35.5246V43.3132L36.9147 43.0315V39.6426H31.7995V43.0315L33.1896 43.3132V45.0304H27.4929ZM42.8288 45.0304V43.3132L44.228 43.0315V33.8096L42.8288 33.5279V31.8016H48.5164V33.5279L47.1263 33.8096V43.0315L48.5164 43.3132V45.0304H42.8288ZM50.1511 45.0304V43.3132L51.5503 43.0315V33.8096L50.1511 33.5279V31.8016H60.5633V35.4904H58.3555L58.2555 34.0367H54.4577V37.0713H58.8098V39.3155H54.4577V42.7953H58.4463L58.5463 41.2871H60.7359V45.0304H50.1511ZM67.9856 45.0304L63.788 33.6733L62.5705 33.5279V31.8016H68.1491V33.5279L66.968 33.7096L69.4574 41.3416L69.621 41.9685H69.6755L69.83 41.3597L72.2831 33.7096L70.8839 33.5279V31.8016H76.1536V33.5279L74.9089 33.6733L71.0565 45.0304H67.9856ZM77.5521 45.0304V43.3132L78.9512 43.0315V33.8096L77.5521 33.5279V31.8016H87.9642V35.4904H85.7564L85.6565 34.0367H81.8587V37.0713H86.2107V39.3155H81.8587V42.7953H85.8473L85.9472 41.2871H88.1369V45.0304H77.5521Z" fill="url(#paint5_linear_231_404)"/>
<path d="M36.652 64.3662V62.649L37.5969 62.5127L41.6764 51.1375H44.7383L48.8087 62.5127L49.7445 62.649V64.3662H45.0381V62.649L45.9285 62.4855L45.4288 60.8501H40.9677L40.4862 62.4855L41.3766 62.649V64.3662H36.652ZM41.6219 58.7604H44.7746L43.3573 54.4719L43.221 54.0449H43.1665L43.0211 54.5083L41.6219 58.7604ZM51.2247 64.3662V62.649L52.6239 62.3674V53.1454L51.2247 52.8637V51.1284H57.612C58.6417 51.1284 59.529 51.2919 60.2741 51.619C61.0251 51.94 61.6006 52.4034 62.0003 53.0091C62.4062 53.6088 62.6091 54.3235 62.6091 55.1533C62.6091 55.9286 62.4062 56.6373 62.0003 57.2794C61.6006 57.9154 61.0433 58.4212 60.3286 58.7967C59.6199 59.1722 58.8052 59.36 57.8845 59.36L55.5313 59.3418V62.3674L56.9214 62.649V64.3662H51.2247ZM59.6744 64.3662L57.6574 58.9148L60.2377 58.1607L62.0094 62.3674L63.1996 62.649V64.3662H59.6744ZM55.5313 57.1068H57.6029C58.2994 57.1068 58.8264 56.9553 59.1838 56.6525C59.5412 56.3436 59.7198 55.8984 59.7198 55.3169C59.7198 54.7233 59.5381 54.2508 59.1747 53.8995C58.8173 53.5421 58.2964 53.3635 57.612 53.3635H55.5313V57.1068ZM67.4601 64.3662V62.649L68.8593 62.3674V53.3816H66.6242L66.5061 54.8899H64.3165V51.1375H76.3459V54.8899H74.129L74.02 53.3816H71.7667V62.3674L73.1659 62.649V64.3662H67.4601ZM83.2321 64.557C82.2085 64.557 81.2878 64.451 80.4701 64.239C79.6523 64.027 78.8437 63.6454 78.0442 63.0942V59.7779H80.2883L80.57 61.6042C80.8002 61.8283 81.1575 62.013 81.6421 62.1584C82.1267 62.3038 82.6567 62.3764 83.2321 62.3764C83.6743 62.3764 84.0468 62.3189 84.3496 62.2038C84.6525 62.0827 84.8827 61.9131 85.0402 61.695C85.1976 61.4709 85.2764 61.2074 85.2764 60.9046C85.2764 60.6138 85.2037 60.3564 85.0583 60.1323C84.919 59.9021 84.6858 59.6901 84.3587 59.4963C84.0316 59.3025 83.5895 59.1117 83.0322 58.9239C81.9419 58.5908 81.0425 58.2394 80.3338 57.87C79.6311 57.4944 79.1042 57.0522 78.7529 56.5434C78.4076 56.0286 78.235 55.3987 78.235 54.6536C78.235 53.9328 78.4379 53.2999 78.8437 52.7547C79.2556 52.2035 79.8189 51.7704 80.5337 51.4555C81.2484 51.1405 82.0722 50.977 83.005 50.9648C84.0528 50.9406 84.9796 51.0527 85.7852 51.301C86.5908 51.5494 87.2934 51.9067 87.8931 52.3731V55.4532H85.7307L85.3672 53.6633C85.1492 53.5361 84.8463 53.424 84.4587 53.3271C84.0771 53.2302 83.6531 53.1817 83.1867 53.1817C82.7869 53.1817 82.4326 53.2393 82.1237 53.3544C81.8208 53.4634 81.5785 53.63 81.3968 53.8541C81.2211 54.0721 81.1333 54.3417 81.1333 54.6627C81.1333 54.9232 81.209 55.1564 81.3605 55.3623C81.5119 55.5683 81.7723 55.7681 82.1418 55.962C82.5113 56.1497 83.0231 56.3587 83.6773 56.5889C85.1552 57.0129 86.2758 57.558 87.039 58.2243C87.8083 58.8906 88.1929 59.7779 88.1929 60.8864C88.1929 61.6557 87.9839 62.3159 87.566 62.8671C87.1541 63.4122 86.5756 63.8302 85.8306 64.1209C85.0856 64.4116 84.2194 64.557 83.2321 64.557Z" fill="url(#paint6_linear_231_404)"/>
<defs>
<linearGradient id="paint0_linear_231_404" x1="120.609" y1="10.7725" x2="92.2981" y2="22.0622" gradientUnits="userSpaceOnUse">
<stop stop-color="#927049"/>
<stop offset="0.2" stop-color="#D2BC74"/>
<stop offset="0.5" stop-color="#F9E7B7"/>
<stop offset="0.8" stop-color="#AE8D4D"/>
<stop offset="1" stop-color="#927049"/>
</linearGradient>
<linearGradient id="paint1_linear_231_404" x1="130.207" y1="34.7097" x2="101.896" y2="45.9994" gradientUnits="userSpaceOnUse">
<stop stop-color="#927049"/>
<stop offset="0.2" stop-color="#D2BC74"/>
<stop offset="0.5" stop-color="#F9E7B7"/>
<stop offset="0.8" stop-color="#AE8D4D"/>
<stop offset="1" stop-color="#927049"/>
</linearGradient>
<linearGradient id="paint2_linear_231_404" x1="136.994" y1="51.7574" x2="94.6701" y2="68.1814" gradientUnits="userSpaceOnUse">
<stop stop-color="#927049"/>
<stop offset="0.2" stop-color="#D2BC74"/>
<stop offset="0.5" stop-color="#F9E7B7"/>
<stop offset="0.8" stop-color="#AE8D4D"/>
<stop offset="1" stop-color="#927049"/>
</linearGradient>
<linearGradient id="paint3_linear_231_404" x1="115.449" y1="81.0879" x2="85.8999" y2="74.2641" gradientUnits="userSpaceOnUse">
<stop stop-color="#927049"/>
<stop offset="0.2" stop-color="#D2BC74"/>
<stop offset="0.5" stop-color="#F9E7B7"/>
<stop offset="0.8" stop-color="#AE8D4D"/>
<stop offset="1" stop-color="#927049"/>
</linearGradient>
<linearGradient id="paint4_linear_231_404" x1="96.0797" y1="85.7393" x2="76.6841" y2="81.2604" gradientUnits="userSpaceOnUse">
<stop stop-color="#927049"/>
<stop offset="0.2" stop-color="#D2BC74"/>
<stop offset="0.5" stop-color="#F9E7B7"/>
<stop offset="0.8" stop-color="#AE8D4D"/>
<stop offset="1" stop-color="#927049"/>
</linearGradient>
<linearGradient id="paint5_linear_231_404" x1="44.5" y1="28.0304" x2="44.5" y2="47.0304" gradientUnits="userSpaceOnUse">
<stop stop-color="#BFA265"/>
<stop offset="1" stop-color="#FFECC5"/>
</linearGradient>
<linearGradient id="paint6_linear_231_404" x1="62.1562" y1="47.3662" x2="62.1562" y2="66.3662" gradientUnits="userSpaceOnUse">
<stop stop-color="#BFA265"/>
<stop offset="1" stop-color="#FFECC5"/>
</linearGradient>
</defs>
</svg>
