<svg width="76" height="91" viewBox="0 0 76 91" fill="none" xmlns="http://www.w3.org/2000/svg">
<path fill-rule="evenodd" clip-rule="evenodd" d="M11.1196 11.1196C-3.70652 25.9456 -3.70652 49.9813 11.1196 64.8074L35.9533 89.6449C37.062 90.7536 38.8622 90.7536 39.9709 89.6449L64.8084 64.8074C79.6308 49.9813 79.6308 25.9456 64.8084 11.1196C49.9824 -3.70652 25.9429 -3.70652 11.1206 11.1196H11.1196Z" fill="#460875"/>
<path d="M38.3954 19.9668L44.249 30.361C44.3711 30.596 44.673 30.7705 44.9139 30.8276L56.831 32.8555C57.6133 32.9672 57.9214 33.9086 57.3847 34.4438L49.0998 43.1229C48.9214 43.3603 48.8036 43.6562 48.8656 43.8916L50.5831 55.6759C50.7094 56.4417 49.8727 57.0383 49.2088 56.6897L38.2291 51.6458C37.9877 51.5297 37.6271 51.5326 37.3877 51.6525L26.4904 56.8722C25.772 57.2319 24.986 56.6483 25.1 55.8805L26.628 44.0703C26.6256 43.7753 26.6232 43.4804 26.3814 43.3054L17.9581 34.7605C17.4129 34.234 17.7059 33.2878 18.4862 33.1635L30.3693 30.9444C30.6698 30.942 30.9083 30.7041 31.0266 30.4672L36.6524 19.9808C37.0078 19.329 38.0295 19.3208 38.3954 19.9668Z" fill="url(#paint0_linear_209_4984)"/>
<defs>
<linearGradient id="paint0_linear_209_4984" x1="60.3572" y1="37.8413" x2="14.2028" y2="38.6408" gradientUnits="userSpaceOnUse">
<stop stop-color="#927049"/>
<stop offset="0.2" stop-color="#D2BC74"/>
<stop offset="0.5" stop-color="#F9E7B7"/>
<stop offset="0.8" stop-color="#AE8D4D"/>
<stop offset="1" stop-color="#927049"/>
</linearGradient>
</defs>
</svg>
