<svg viewBox="0 0 26 29" fill="none" xmlns="http://www.w3.org/2000/svg">
<path fill-rule="evenodd" clip-rule="evenodd" d="M0.669354 2.5695L5.02789 0.164323C5.34064 -0.0080813 5.67318 -0.0448226 6.01709 0.0540957C6.36097 0.154428 6.62136 0.362163 6.79258 0.675903L10.1946 6.8994C10.4691 7.40248 10.3899 8.00026 9.99361 8.4143L7.27513 11.2519C6.8888 11.6561 6.80247 12.2313 7.05437 12.7301C8.43555 15.4589 11.185 18.709 13.6489 20.5251C14.0989 20.8572 14.6819 20.8685 15.1447 20.5548L18.3995 18.3531C18.875 18.0323 19.4779 18.0535 19.9279 18.4082L25.5051 22.7975C25.7867 23.0194 25.9495 23.3091 25.9905 23.6652C26.0315 24.0199 25.9396 24.3407 25.7174 24.6205L22.614 28.511C22.3097 28.8925 21.854 29.0635 21.3743 28.9787C11.0607 27.1515 0.0822608 14.1759 2.41357e-05 3.71572C-0.00280596 3.22535 0.243383 2.80552 0.669354 2.5695Z" fill="white"/>
</svg>
